<?xml version="1.0" encoding="UTF-8"?>
<svg id="Layer_1" data-name="Layer 1" xmlns="http://www.w3.org/2000/svg" viewBox="0 0 210.63 147.91">
  <defs>
    <style>
      .cls-1 {
        fill: #dfdfdd;
      }

      .cls-2 {
        fill: #2d2e2d;
      }

      .cls-3 {
        fill: #fffffa;
      }

      .cls-4 {
        fill: #010101;
      }

      .cls-5 {
        fill: #282827;
      }

      .cls-6 {
        fill: #404141;
      }

      .cls-7 {
        fill: #e1e2e1;
      }

      .cls-8 {
        fill: #975825;
      }

      .cls-9 {
        fill: #e5e5e4;
      }

      .cls-10 {
        fill: #fcd738;
      }

      .cls-11 {
        fill: #424343;
      }

      .cls-12 {
        fill: #db8827;
      }

      .cls-13 {
        fill: #e64143;
      }

      .cls-14 {
        fill: #975925;
      }

      .cls-15 {
        fill: #fff;
      }

      .cls-16 {
        fill: #d7d7d7;
      }

      .cls-17 {
        fill: #ec5a60;
      }

      .cls-18 {
        fill: #30302f;
      }

      .cls-19 {
        opacity: .1;
      }

      .cls-20 {
        fill: #6a6a69;
      }

      .cls-21 {
        fill: #9e9e9e;
      }

      .cls-22 {
        fill: #a1c4c6;
      }

      .cls-23 {
        fill: #c47529;
      }

      .cls-24 {
        fill: #56c0ee;
      }
    </style>
  </defs>
  <g class="cls-19">
    <ellipse class="cls-4" cx="101.65" cy="124.65" rx="101.65" ry="14.92"/>
  </g>
  <g>
    <path class="cls-13" d="M53.4,9.99c-.53-.54-1.44-.18-1.44.57v6.89c0,.67-.38,1.28-.99,1.58l-3.92,1.91c-.48.24-1.05.24-1.53,0l-3.92-1.91c-.6-.29-.99-.9-.99-1.58v-6.89c0-.75-.92-1.11-1.44-.57-1.73,1.78-2.8,4.21-2.8,6.9,0,3.73,2.06,6.97,5.1,8.66.77.43,1.23,1.24,1.23,2.12v21.17h7.14v-21.17c0-.88.47-1.69,1.23-2.12,3.04-1.69,5.1-4.93,5.1-8.66,0-2.68-1.06-5.11-2.8-6.9Z"/>
    <g>
      <g>
        <g>
          <rect class="cls-11" x="25.31" y="35.64" width="135.69" height="84.3" rx="4.4" ry="4.4"/>
          <path class="cls-7" d="M155.32,40.6H30.99c-1.02,0-1.85.83-1.85,1.85v70.68c0,1.02.83,1.85,1.85,1.85h124.33c.05,0,.11,0,.15,0,.95-.08,1.69-.87,1.69-1.84V42.44c0-1.02-.83-1.85-1.85-1.85Z"/>
        </g>
        <rect class="cls-20" x="85.43" y="119.93" width="15.45" height="5.41"/>
        <path class="cls-11" d="M112.66,127.64c-1.06-1.45-2.74-2.3-4.54-2.3h-29.94c-1.79,0-3.48.85-4.54,2.3l-2.28,3.11h43.57l-2.28-3.11Z"/>
      </g>
      <rect class="cls-15" x="29.32" y="40.62" width="128.03" height="74.3"/>
      <rect class="cls-1" x="29.14" y="99.14" width="128.03" height="15.81"/>
      <g>
        <rect class="cls-24" x="29.14" y="45.04" width="128.2" height="6.58"/>
        <g>
          <rect class="cls-21" x="137" y="47.38" width="8.75" height="1.89"/>
          <g>
            <rect class="cls-21" x="62.34" y="47.38" width="5.17" height="1.89"/>
            <rect class="cls-21" x="54.38" y="47.38" width="5.17" height="1.89"/>
            <rect class="cls-21" x="46.42" y="47.38" width="5.17" height="1.89"/>
            <rect class="cls-21" x="38.46" y="47.38" width="5.17" height="1.89"/>
          </g>
          <rect class="cls-21" x="147.03" y="46.5" width="3.65" height="3.65"/>
        </g>
      </g>
      <g>
        <rect class="cls-24" x="116.41" y="108.52" width="17.18" height="6.43"/>
        <rect class="cls-15" x="84.74" y="108.52" width="17.18" height="6.43"/>
        <rect class="cls-15" x="53.07" y="108.52" width="17.18" height="6.43"/>
      </g>
      <rect class="cls-21" x="82.81" y="102.94" width="20.68" height="2.16"/>
      <rect class="cls-21" x="113.81" y="59.89" width="28.75" height="1.99"/>
      <rect class="cls-21" x="126" y="63.05" width="16.55" height="1.99"/>
      <path class="cls-21" d="M140.91,85.14h-7.98c-.91,0-1.64.74-1.64,1.64s.74,1.64,1.64,1.64h7.98c.91,0,1.64-.74,1.64-1.64s-.74-1.64-1.64-1.64Z"/>
    </g>
    <g>
      <path class="cls-6" d="M171.19,1.29l-8.41,18.53h16.82l-8.41-18.53ZM171.19,4.29l6.49,14.3h-12.98l6.49-14.3Z"/>
      <g>
        <circle class="cls-10" cx="171.19" cy="2.79" r="2.38"/>
        <path class="cls-18" d="M171.19,0c-1.54,0-2.79,1.25-2.79,2.79s1.25,2.79,2.79,2.79,2.79-1.25,2.79-2.79-1.25-2.79-2.79-2.79ZM171.19,4.77c-1.09,0-1.98-.89-1.98-1.98s.89-1.98,1.98-1.98,1.98.89,1.98,1.98-.89,1.98-1.98,1.98Z"/>
      </g>
      <polygon class="cls-6" points="113.02 39.42 103.27 51.42 103.44 51.55 113.02 39.75 122.6 51.55 122.76 51.42 113.02 39.42"/>
      <rect class="cls-10" x="101.49" y="51.14" width="23.05" height="10.39"/>
      <path class="cls-6" d="M164.93,28.22v90.78h12.52V28.22h-12.52ZM176.21,117.77h-10.05V29.46h10.05v88.31Z"/>
      <g>
        <rect class="cls-9" x="191.62" y="13.59" width="11.32" height="15.25"/>
        <path class="cls-6" d="M190.92,12.89v16.66h12.73V12.89h-12.73ZM202.23,28.14h-9.9v-13.84h9.9v13.84Z"/>
      </g>
      <polygon class="cls-6" points="171.24 .3 171.2 .28 93.82 19.09 93.87 19.31 171.18 .53 209.88 19.3 209.98 19.1 171.24 .3"/>
      <path class="cls-6" d="M165.24,106.8v11.9h11.9v-11.9h-11.9ZM176.09,107.41l-4.9,4.9-4.9-4.9h9.81ZM165.85,107.84l4.9,4.9-4.9,4.9v-9.81ZM166.29,118.08l4.9-4.9,4.9,4.9h-9.81ZM176.52,117.65l-4.9-4.9,4.9-4.9v9.81Z"/>
      <path class="cls-6" d="M165.24,95.51v11.9h11.9v-11.9h-11.9ZM176.09,96.13l-4.9,4.9-4.9-4.9h9.81ZM165.85,96.56l4.9,4.9-4.9,4.9v-9.81ZM166.29,106.8l4.9-4.9,4.9,4.9h-9.81ZM176.52,106.36l-4.9-4.9,4.9-4.9v9.81Z"/>
      <path class="cls-6" d="M165.24,84.23v11.9h11.9v-11.9h-11.9ZM176.09,84.84l-4.9,4.9-4.9-4.9h9.81ZM165.85,85.28l4.9,4.9-4.9,4.9v-9.81ZM166.29,95.51l4.9-4.9,4.9,4.9h-9.81ZM176.52,95.08l-4.9-4.9,4.9-4.9v9.81Z"/>
      <path class="cls-6" d="M165.24,72.95v11.9h11.9v-11.9h-11.9ZM176.09,73.56l-4.9,4.9-4.9-4.9h9.81ZM165.85,73.99l4.9,4.9-4.9,4.9v-9.81ZM166.29,84.23l4.9-4.9,4.9,4.9h-9.81ZM176.52,83.8l-4.9-4.9,4.9-4.9v9.81Z"/>
      <path class="cls-6" d="M165.24,61.66v11.9h11.9v-11.9h-11.9ZM176.09,62.28l-4.9,4.9-4.9-4.9h9.81ZM165.85,62.71l4.9,4.9-4.9,4.9v-9.81ZM166.29,72.95l4.9-4.9,4.9,4.9h-9.81ZM176.52,72.51l-4.9-4.9,4.9-4.9v9.81Z"/>
      <path class="cls-6" d="M165.24,50.38v11.9h11.9v-11.9h-11.9ZM176.09,50.99l-4.9,4.9-4.9-4.9h9.81ZM165.85,51.43l4.9,4.9-4.9,4.9v-9.81ZM166.29,61.66l4.9-4.9,4.9,4.9h-9.81ZM176.52,61.23l-4.9-4.9,4.9-4.9v9.81Z"/>
      <path class="cls-6" d="M165.24,39.1v11.9h11.9v-11.9h-11.9ZM176.09,39.71l-4.9,4.9-4.9-4.9h9.81ZM165.85,40.14l4.9,4.9-4.9,4.9v-9.81ZM166.29,50.38l4.9-4.9,4.9,4.9h-9.81ZM176.52,49.95l-4.9-4.9,4.9-4.9v9.81Z"/>
      <path class="cls-6" d="M165.24,27.81v11.9h11.9v-11.9h-11.9ZM176.09,28.43l-4.9,4.9-4.9-4.9h9.81ZM165.85,28.86l4.9,4.9-4.9,4.9v-9.81ZM166.29,39.1l4.9-4.9,4.9,4.9h-9.81ZM176.52,38.66l-4.9-4.9,4.9-4.9v9.81Z"/>
      <g>
        <path class="cls-6" d="M93.14,18.65v5.45h117.49v-5.45h-117.49ZM209.22,22.68h-114.67v-2.62h114.67v2.62Z"/>
        <path class="cls-6" d="M202.77,19.2v4.34h4.34v-4.34h-4.34ZM206.59,19.51l-1.65,1.65-1.65-1.65h3.3ZM203.08,19.72l1.65,1.65-1.65,1.65v-3.3ZM203.29,23.23l1.65-1.65,1.65,1.65h-3.3ZM206.81,23.02l-1.65-1.65,1.65-1.65v3.3Z"/>
        <path class="cls-6" d="M198.74,19.2v4.34h4.34v-4.34h-4.34ZM202.56,19.51l-1.65,1.65-1.65-1.65h3.3ZM199.04,19.72l1.65,1.65-1.65,1.65v-3.3ZM199.26,23.23l1.65-1.65,1.65,1.65h-3.3ZM202.77,23.02l-1.65-1.65,1.65-1.65v3.3Z"/>
        <path class="cls-6" d="M194.7,19.2v4.34h4.34v-4.34h-4.34ZM198.52,19.51l-1.65,1.65-1.65-1.65h3.3ZM195.01,19.72l1.65,1.65-1.65,1.65v-3.3ZM195.23,23.23l1.65-1.65,1.65,1.65h-3.3ZM198.74,23.02l-1.65-1.65,1.65-1.65v3.3Z"/>
        <path class="cls-6" d="M190.67,19.2v4.34h4.34v-4.34h-4.34ZM194.49,19.51l-1.65,1.65-1.65-1.65h3.3ZM190.98,19.72l1.65,1.65-1.65,1.65v-3.3ZM191.19,23.23l1.65-1.65,1.65,1.65h-3.3ZM194.7,23.02l-1.65-1.65,1.65-1.65v3.3Z"/>
        <path class="cls-6" d="M186.64,19.2v4.34h4.34v-4.34h-4.34ZM190.45,19.51l-1.65,1.65-1.65-1.65h3.3ZM186.94,19.72l1.65,1.65-1.65,1.65v-3.3ZM187.16,23.23l1.65-1.65,1.65,1.65h-3.3ZM190.67,23.02l-1.65-1.65,1.65-1.65v3.3Z"/>
        <path class="cls-6" d="M182.6,19.2v4.34h4.34v-4.34h-4.34ZM186.42,19.51l-1.65,1.65-1.65-1.65h3.3ZM182.91,19.72l1.65,1.65-1.65,1.65v-3.3ZM183.12,23.23l1.65-1.65,1.65,1.65h-3.3ZM186.64,23.02l-1.65-1.65,1.65-1.65v3.3Z"/>
        <path class="cls-6" d="M178.57,19.2v4.34h4.34v-4.34h-4.34ZM182.38,19.51l-1.65,1.65-1.65-1.65h3.3ZM178.87,19.72l1.65,1.65-1.65,1.65v-3.3ZM179.09,23.23l1.65-1.65,1.65,1.65h-3.3ZM182.6,23.02l-1.65-1.65,1.65-1.65v3.3Z"/>
        <path class="cls-6" d="M174.53,19.2v4.34h4.34v-4.34h-4.34ZM178.35,19.51l-1.65,1.65-1.65-1.65h3.3ZM174.84,19.72l1.65,1.65-1.65,1.65v-3.3ZM175.06,23.23l1.65-1.65,1.65,1.65h-3.3ZM178.57,23.02l-1.65-1.65,1.65-1.65v3.3Z"/>
        <path class="cls-6" d="M170.5,19.2v4.34h4.34v-4.34h-4.34ZM174.32,19.51l-1.65,1.65-1.65-1.65h3.3ZM170.8,19.72l1.65,1.65-1.65,1.65v-3.3ZM171.02,23.23l1.65-1.65,1.65,1.65h-3.3ZM174.53,23.02l-1.65-1.65,1.65-1.65v3.3Z"/>
        <path class="cls-6" d="M166.46,19.2v4.34h4.34v-4.34h-4.34ZM170.28,19.51l-1.65,1.65-1.65-1.65h3.3ZM166.77,19.72l1.65,1.65-1.65,1.65v-3.3ZM166.99,23.23l1.65-1.65,1.65,1.65h-3.3ZM170.5,23.02l-1.65-1.65,1.65-1.65v3.3Z"/>
        <path class="cls-6" d="M162.43,19.2v4.34h4.34v-4.34h-4.34ZM166.25,19.51l-1.65,1.65-1.65-1.65h3.3ZM162.74,19.72l1.65,1.65-1.65,1.65v-3.3ZM162.95,23.23l1.65-1.65,1.65,1.65h-3.3ZM166.46,23.02l-1.65-1.65,1.65-1.65v3.3Z"/>
        <path class="cls-6" d="M158.4,19.2v4.34h4.34v-4.34h-4.34ZM162.21,19.51l-1.65,1.65-1.65-1.65h3.3ZM158.7,19.72l1.65,1.65-1.65,1.65v-3.3ZM158.92,23.23l1.65-1.65,1.65,1.65h-3.3ZM162.43,23.02l-1.65-1.65,1.65-1.65v3.3Z"/>
        <path class="cls-6" d="M154.36,19.2v4.34h4.34v-4.34h-4.34ZM158.18,19.51l-1.65,1.65-1.65-1.65h3.3ZM154.67,19.72l1.65,1.65-1.65,1.65v-3.3ZM154.88,23.23l1.65-1.65,1.65,1.65h-3.3ZM158.4,23.02l-1.65-1.65,1.65-1.65v3.3Z"/>
        <path class="cls-6" d="M150.33,19.2v4.34h4.34v-4.34h-4.34ZM154.14,19.51l-1.65,1.65-1.65-1.65h3.3ZM150.63,19.72l1.65,1.65-1.65,1.65v-3.3ZM150.85,23.23l1.65-1.65,1.65,1.65h-3.3ZM154.36,23.02l-1.65-1.65,1.65-1.65v3.3Z"/>
        <path class="cls-6" d="M146.29,19.2v4.34h4.34v-4.34h-4.34ZM150.11,19.51l-1.65,1.65-1.65-1.65h3.3ZM146.6,19.72l1.65,1.65-1.65,1.65v-3.3ZM146.82,23.23l1.65-1.65,1.65,1.65h-3.3ZM150.33,23.02l-1.65-1.65,1.65-1.65v3.3Z"/>
        <path class="cls-6" d="M142.26,19.2v4.34h4.34v-4.34h-4.34ZM146.08,19.51l-1.65,1.65-1.65-1.65h3.3ZM142.56,19.72l1.65,1.65-1.65,1.65v-3.3ZM142.78,23.23l1.65-1.65,1.65,1.65h-3.3ZM146.29,23.02l-1.65-1.65,1.65-1.65v3.3Z"/>
        <path class="cls-6" d="M138.22,19.2v4.34h4.34v-4.34h-4.34ZM142.04,19.51l-1.65,1.65-1.65-1.65h3.3ZM138.53,19.72l1.65,1.65-1.65,1.65v-3.3ZM138.75,23.23l1.65-1.65,1.65,1.65h-3.3ZM142.26,23.02l-1.65-1.65,1.65-1.65v3.3Z"/>
        <path class="cls-6" d="M134.19,19.2v4.34h4.34v-4.34h-4.34ZM138.01,19.51l-1.65,1.65-1.65-1.65h3.3ZM134.5,19.72l1.65,1.65-1.65,1.65v-3.3ZM134.71,23.23l1.65-1.65,1.65,1.65h-3.3ZM138.22,23.02l-1.65-1.65,1.65-1.65v3.3Z"/>
        <path class="cls-6" d="M130.16,19.2v4.34h4.34v-4.34h-4.34ZM133.97,19.51l-1.65,1.65-1.65-1.65h3.3ZM130.46,19.72l1.65,1.65-1.65,1.65v-3.3ZM130.68,23.23l1.65-1.65,1.65,1.65h-3.3ZM134.19,23.02l-1.65-1.65,1.65-1.65v3.3Z"/>
        <path class="cls-6" d="M126.12,19.2v4.34h4.34v-4.34h-4.34ZM129.94,19.51l-1.65,1.65-1.65-1.65h3.3ZM126.43,19.72l1.65,1.65-1.65,1.65v-3.3ZM126.64,23.23l1.65-1.65,1.65,1.65h-3.3ZM130.16,23.02l-1.65-1.65,1.65-1.65v3.3Z"/>
        <path class="cls-6" d="M122.09,19.2v4.34h4.34v-4.34h-4.34ZM125.9,19.51l-1.65,1.65-1.65-1.65h3.3ZM122.39,19.72l1.65,1.65-1.65,1.65v-3.3ZM122.61,23.23l1.65-1.65,1.65,1.65h-3.3ZM126.12,23.02l-1.65-1.65,1.65-1.65v3.3Z"/>
        <path class="cls-6" d="M118.05,19.2v4.34h4.34v-4.34h-4.34ZM121.87,19.51l-1.65,1.65-1.65-1.65h3.3ZM118.36,19.72l1.65,1.65-1.65,1.65v-3.3ZM118.58,23.23l1.65-1.65,1.65,1.65h-3.3ZM122.09,23.02l-1.65-1.65,1.65-1.65v3.3Z"/>
        <path class="cls-6" d="M114.02,19.2v4.34h4.34v-4.34h-4.34ZM117.84,19.51l-1.65,1.65-1.65-1.65h3.3ZM114.32,19.72l1.65,1.65-1.65,1.65v-3.3ZM114.54,23.23l1.65-1.65,1.65,1.65h-3.3ZM118.05,23.02l-1.65-1.65,1.65-1.65v3.3Z"/>
        <path class="cls-6" d="M109.98,19.2v4.34h4.34v-4.34h-4.34ZM113.8,19.51l-1.65,1.65-1.65-1.65h3.3ZM110.29,19.72l1.65,1.65-1.65,1.65v-3.3ZM110.51,23.23l1.65-1.65,1.65,1.65h-3.3ZM114.02,23.02l-1.65-1.65,1.65-1.65v3.3Z"/>
        <path class="cls-6" d="M105.95,19.2v4.34h4.34v-4.34h-4.34ZM109.77,19.51l-1.65,1.65-1.65-1.65h3.3ZM106.26,19.72l1.65,1.65-1.65,1.65v-3.3ZM106.47,23.23l1.65-1.65,1.65,1.65h-3.3ZM109.98,23.02l-1.65-1.65,1.65-1.65v3.3Z"/>
        <path class="cls-6" d="M101.92,19.2v4.34h4.34v-4.34h-4.34ZM105.73,19.51l-1.65,1.65-1.65-1.65h3.3ZM102.22,19.72l1.65,1.65-1.65,1.65v-3.3ZM102.44,23.23l1.65-1.65,1.65,1.65h-3.3ZM105.95,23.02l-1.65-1.65,1.65-1.65v3.3Z"/>
        <path class="cls-6" d="M97.88,19.2v4.34h4.34v-4.34h-4.34ZM101.7,19.51l-1.65,1.65-1.65-1.65h3.3ZM98.19,19.72l1.65,1.65-1.65,1.65v-3.3ZM98.4,23.23l1.65-1.65,1.65,1.65h-3.3ZM101.92,23.02l-1.65-1.65,1.65-1.65v3.3Z"/>
        <path class="cls-6" d="M93.85,19.2v4.34h4.34v-4.34h-4.34ZM97.67,19.51l-1.65,1.65-1.65-1.65h3.3ZM94.15,19.72l1.65,1.65-1.65,1.65v-3.3ZM94.37,23.23l1.65-1.65,1.65,1.65h-3.3ZM97.88,23.02l-1.65-1.65,1.65-1.65v3.3Z"/>
      </g>
      <g>
        <rect class="cls-15" x="189.46" y="16.84" width="15.65" height="8.76"/>
        <path class="cls-6" d="M188.83,16.21v10.02h16.9v-10.02h-16.9ZM204.48,24.97h-14.39v-7.5h14.39v7.5Z"/>
      </g>
      <rect class="cls-6" x="164.41" y="118.39" width="13.57" height="2.79"/>
      <path class="cls-6" d="M177.98,121.17h-13.58c-1.45,0-2.62,1.17-2.62,2.62v1.58h18.83v-1.58c0-1.45-1.17-2.62-2.62-2.62Z"/>
      <path class="cls-12" d="M180.73,24.48v-13.55h-10.55c-2.95,0-5.6,1.82-6.66,4.57l-3.46,8.98h-2.38v7.01h25.42v-7.01h-2.38Z"/>
      <rect class="cls-6" x="112.9" y="23.54" width=".23" height="27.6"/>
      <g>
        <path class="cls-10" d="M113.02,23.83c-1.18,0-2.13.95-2.13,2.13s.95,2.13,2.13,2.13,2.13-.95,2.13-2.13-.95-2.13-2.13-2.13Z"/>
        <path class="cls-18" d="M113.02,23.43c-1.4,0-2.53,1.14-2.53,2.53s1.14,2.53,2.53,2.53,2.53-1.14,2.53-2.53-1.14-2.53-2.53-2.53ZM113.02,27.69c-.95,0-1.73-.77-1.73-1.73s.77-1.73,1.73-1.73,1.73.77,1.73,1.73-.77,1.73-1.73,1.73Z"/>
      </g>
      <g>
        <path class="cls-10" d="M113.02,38.91c-.39,0-.71.32-.71.71s.32.71.71.71.71-.32.71-.71-.32-.71-.71-.71Z"/>
        <path class="cls-18" d="M113.02,38.5c-.61,0-1.11.5-1.11,1.11s.5,1.11,1.11,1.11,1.11-.5,1.11-1.11-.5-1.11-1.11-1.11ZM113.02,39.92c-.17,0-.3-.14-.3-.3s.14-.3.3-.3.3.14.3.3-.14.3-.3.3Z"/>
      </g>
      <rect class="cls-6" x="102.25" y="16.15" width=".23" height="17.21" transform="translate(63.44 122.61) rotate(-81.9)"/>
      <rect class="cls-6" x="115.12" y="24.76" width="45.34" height=".23" transform="translate(-1.04 6.66) rotate(-2.76)"/>
      <g>
        <path class="cls-22" d="M171.68,15.34c-2.43,0-4.62,1.5-5.49,3.77l-1.8,4.67h8.07v-8.44h-.78Z"/>
        <path class="cls-8" d="M171.68,15.11c-2.51,0-4.8,1.57-5.71,3.92l-1.92,4.98h8.63v-8.9h-1.01ZM172.22,23.55h-7.51l1.68-4.36c.83-2.17,2.96-3.62,5.28-3.62h.55v7.99Z"/>
      </g>
    </g>
    <g>
      <g>
        <path class="cls-12" d="M166.05,125.81c-.11-.23-.35-.39-.63-.39h-.33l-.25-.76-.56-1.7-.38-1.15-.56-1.7-.38-1.15-.56-1.7-.06-.18c-.28-.85-1.48-.85-1.76,0l-.06.18-.56,1.7-.38,1.15-.56,1.7-.38,1.15-.56,1.7-.25.76h-.33c-.28,0-.51.16-.63.39-.05.09-.07.2-.07.31v.69c0,.39.31.7.7.7h7.9c.39,0,.7-.31.7-.7v-.69c0-.11-.02-.22-.07-.31Z"/>
        <g>
          <polygon class="cls-14" points="162.42 117.26 160.54 117.26 159.98 118.96 162.97 118.96 162.42 117.26"/>
          <polygon class="cls-14" points="163.35 120.11 159.6 120.11 159.04 121.81 163.91 121.81 163.35 120.11"/>
          <polygon class="cls-14" points="164.29 122.96 158.66 122.96 158.11 124.65 164.84 124.65 164.29 122.96"/>
        </g>
      </g>
      <g>
        <path class="cls-12" d="M183.22,125.81c-.11-.23-.35-.39-.63-.39h-.33l-.25-.76-.56-1.7-.38-1.15-.56-1.7-.38-1.15-.56-1.7-.06-.18c-.28-.85-1.48-.85-1.76,0l-.06.18-.56,1.7-.38,1.15-.56,1.7-.38,1.15-.56,1.7-.25.76h-.33c-.28,0-.51.16-.63.39-.05.09-.07.2-.07.31v.69c0,.39.31.7.7.7h7.9c.39,0,.7-.31.7-.7v-.69c0-.11-.02-.22-.07-.31Z"/>
        <g>
          <polygon class="cls-14" points="179.59 117.26 177.71 117.26 177.15 118.96 180.14 118.96 179.59 117.26"/>
          <polygon class="cls-14" points="180.52 120.11 176.77 120.11 176.21 121.81 181.08 121.81 180.52 120.11"/>
          <polygon class="cls-14" points="181.46 122.96 175.84 122.96 175.28 124.65 182.02 124.65 181.46 122.96"/>
        </g>
      </g>
      <g>
        <path class="cls-12" d="M200.39,125.81c-.11-.23-.35-.39-.63-.39h-.33l-.25-.76-.56-1.7-.38-1.15-.56-1.7-.38-1.15-.56-1.7-.06-.18c-.28-.85-1.48-.85-1.76,0l-.06.18-.56,1.7-.38,1.15-.56,1.7-.38,1.15-.56,1.7-.25.76h-.33c-.28,0-.51.16-.63.39-.05.09-.07.2-.07.31v.69c0,.39.31.7.7.7h7.9c.39,0,.7-.31.7-.7v-.69c0-.11-.02-.22-.07-.31Z"/>
        <g>
          <polygon class="cls-14" points="196.76 117.26 194.88 117.26 194.32 118.96 197.32 118.96 196.76 117.26"/>
          <polygon class="cls-14" points="197.69 120.11 193.94 120.11 193.39 121.81 198.25 121.81 197.69 120.11"/>
          <polygon class="cls-14" points="198.63 122.96 193.01 122.96 192.45 124.65 199.19 124.65 198.63 122.96"/>
        </g>
      </g>
    </g>
    <g>
      <g>
        <g>
          <rect class="cls-10" x="128.96" y="92.64" width="33.37" height="15.96"/>
          <rect class="cls-17" x="136.99" y="90.63" width="15.96" height="15.96"/>
          <rect class="cls-24" x="118.97" y="97.11" width="15.96" height="15.96"/>
        </g>
        <g>
          <path class="cls-12" d="M159.46,133.38h-50.23v-22.93c0-1.23-1-2.23-2.23-2.23h-6.66c-9.64,0-17.76,6.52-20.2,15.39-.4,1.47-.65,3.02-.72,4.61-.19,0-.39.02-.57.05-.69.12-1.31.45-1.78.93-.6.6-.98,1.43-.98,2.35v6.52h8.21c0-5.53,4.49-10.02,10.02-10.02s10.02,4.49,10.02,10.02h55.13c.76,0,1.37-.61,1.37-1.37v-1.94c0-.76-.61-1.37-1.37-1.37Z"/>
          <rect class="cls-8" x="74.54" y="136.85" width="11.32" height="1.21"/>
          <path class="cls-3" d="M80.2,128.27h-1.36c-.69.12-1.31.45-1.78.93-.6.6-.98,1.43-.98,2.35v.71h7.18v-.93c0-1.69-1.37-3.06-3.06-3.06Z"/>
          <g>
            <path class="cls-22" d="M98.03,111.37c-5.7,0-11.61,3.85-13.05,9.09h16.08c1.23,0,2.22-1,2.22-2.22v-6.87h-5.25Z"/>
            <path class="cls-8" d="M98.03,111.15c-6.01,0-11.84,4.07-13.27,9.26l-.08.29h16.38c1.35,0,2.45-1.1,2.45-2.45v-7.1h-5.48ZM103.05,118.24c0,1.1-.89,1.99-1.99,1.99h-15.77c1.51-4.86,7.04-8.63,12.74-8.63h5.02v6.64Z"/>
          </g>
          <rect class="cls-2" x="110.34" y="128.58" width="47.95" height="4.8"/>
          <rect class="cls-8" x="103.17" y="111.37" width=".23" height="24.16"/>
          <rect class="cls-8" x="84.97" y="120.46" width=".23" height="14.88"/>
          <path class="cls-8" d="M94.31,128.05c-5.53,0-10.02,4.49-10.02,10.02h1.71c0-4.59,3.72-8.31,8.31-8.31s8.31,3.72,8.31,8.31h1.72c0-5.53-4.49-10.02-10.02-10.02Z"/>
          <path class="cls-8" d="M101.11,124.3h-2.63c-.1,0-.18.08-.18.18,0,.41.33.74.74.74h2.63c.1,0,.18-.08.18-.18,0-.41-.33-.74-.74-.74Z"/>
          <g>
            <circle class="cls-2" cx="94.31" cy="138.07" r="7.46" transform="translate(-29.2 25.36) rotate(-13.28)"/>
            <circle class="cls-16" cx="94.31" cy="138.07" r="4.69" transform="translate(-29.2 25.36) rotate(-13.28)"/>
            <path class="cls-2" d="M94.31,137c-.59,0-1.07.48-1.07,1.07s.48,1.07,1.07,1.07,1.07-.48,1.07-1.07-.48-1.07-1.07-1.07Z"/>
          </g>
          <path class="cls-12" d="M166.93,101.45h-.88c-.36,0-.72.1-1.03.29l-2.76,1.68c-.31.19-.67.29-1.03.29h-42.49c-.53,0-1.05-.22-1.42-.6l-1.02-1.04c-.38-.39-.91-.61-1.46-.6l-10.28.2c-1.08.02-1.95.9-1.95,1.99,0,.88.58,1.65,1.42,1.9l5.09,1.51c.84.25,1.42,1.02,1.42,1.9v15.6c0,.51.19.99.54,1.36l4.16,4.42c.38.4.9.62,1.45.62h45.41c.47,0,.92-.17,1.28-.47l4.82-4.07c.45-.38.7-.93.7-1.52v-21.49c0-1.1-.89-1.99-1.99-1.99Z"/>
          <g>
            <rect class="cls-14" x="117.61" y="105.86" width="3.85" height="16.46" rx=".71" ry=".71"/>
            <rect class="cls-14" x="126.09" y="105.86" width="3.85" height="16.46" rx=".71" ry=".71"/>
            <rect class="cls-14" x="134.56" y="105.86" width="3.85" height="16.46" rx=".71" ry=".71"/>
            <rect class="cls-14" x="143.04" y="105.86" width="3.85" height="16.46" rx=".71" ry=".71"/>
            <rect class="cls-14" x="151.52" y="105.86" width="3.85" height="16.46" rx=".71" ry=".71"/>
            <rect class="cls-14" x="159.99" y="105.86" width="3.85" height="16.46" rx=".71" ry=".71"/>
          </g>
          <path class="cls-14" d="M157.06,132.18l-2.73-5.64c-.22-.46-.66-.74-1.15-.74h-12.59c-.48,0-.93.29-1.15.74l-2.73,5.64c-.33.67-.08,1.5.56,1.85s1.41.08,1.74-.59l2.01-4.15c.22-.46.66-.74,1.15-.74h9.44c.48,0,.93.29,1.15.74l2.01,4.15c.33.67,1.1.94,1.74.59.63-.35.88-1.17.56-1.85Z"/>
          <g>
            <rect class="cls-23" x="117.61" y="109.5" width="3.85" height="15.04" rx=".71" ry=".71"/>
            <rect class="cls-23" x="126.09" y="109.5" width="3.85" height="15.04" rx=".71" ry=".71"/>
            <rect class="cls-23" x="134.56" y="109.5" width="3.85" height="15.04" rx=".71" ry=".71"/>
            <rect class="cls-23" x="143.04" y="109.5" width="3.85" height="15.04" rx=".71" ry=".71"/>
            <rect class="cls-23" x="151.52" y="109.5" width="3.85" height="15.04" rx=".71" ry=".71"/>
            <rect class="cls-23" x="159.99" y="109.5" width="3.85" height="15.04" rx=".71" ry=".71"/>
          </g>
          <path class="cls-23" d="M157.71,133.17l-2.9-5.64c-.24-.46-.71-.74-1.22-.74h-13.39c-.51,0-.99.29-1.22.74l-2.9,5.64c-.35.67-.08,1.5.59,1.85.67.35,1.5.08,1.85-.59l2.13-4.15c.24-.46.71-.74,1.22-.74h10.04c.51,0,.99.29,1.22.74l2.13,4.15c.35.67,1.17.94,1.85.59.67-.35.94-1.17.59-1.85Z"/>
          <g>
            <circle class="cls-2" cx="146.89" cy="138.07" r="7.46"/>
            <circle class="cls-16" cx="146.89" cy="138.07" r="4.69" transform="translate(-54.6 144.31) rotate(-45)"/>
            <circle class="cls-2" cx="146.89" cy="138.07" r="1.07"/>
          </g>
        </g>
      </g>
      <g>
        <path class="cls-8" d="M73.86,131.83c-.49,0-.89.4-.89.89v3.76c0,.87.71,1.58,1.58,1.58v-6.24h-.68Z"/>
        <path class="cls-8" d="M77.32,133.53h-3c-.19,0-.34.15-.34.34s.15.34.34.34h3c.19,0,.34-.15.34-.34s-.15-.34-.34-.34Z"/>
        <path class="cls-8" d="M77.32,135.15h-3c-.19,0-.34.15-.34.34s.15.34.34.34h3c.19,0,.34-.15.34-.34s-.15-.34-.34-.34Z"/>
      </g>
    </g>
    <g>
      <g>
        <g>
          <rect class="cls-5" x="20.39" y="80.8" width=".84" height="57.39"/>
          <rect class="cls-5" x="41.27" y="80.8" width=".84" height="57.39"/>
        </g>
        <rect class="cls-5" x="17.49" y="129.76" width="27.52" height="1.09"/>
        <rect class="cls-5" x="17.49" y="114.23" width="27.52" height="1.09"/>
        <rect class="cls-5" x="17.49" y="98.69" width="27.52" height="1.09"/>
        <rect class="cls-5" x="17.49" y="83.16" width="27.52" height="1.09"/>
        <g>
          <polygon class="cls-5" points="41.14 115.08 21.11 129.52 21.36 130 41.39 115.56 41.14 115.08"/>
          <polygon class="cls-5" points="21.36 115.08 21.11 115.56 41.14 130 41.39 129.52 21.36 115.08"/>
        </g>
        <g>
          <polygon class="cls-5" points="41.14 99.55 21.11 113.98 21.36 114.47 41.39 100.03 41.14 99.55"/>
          <polygon class="cls-5" points="21.36 99.55 21.11 100.03 41.14 114.47 41.39 113.98 21.36 99.55"/>
        </g>
        <g>
          <polygon class="cls-5" points="41.14 84.01 21.11 98.45 21.36 98.94 41.39 84.5 41.14 84.01"/>
          <polygon class="cls-5" points="21.36 84.01 21.11 84.5 41.14 98.94 41.39 98.45 21.36 84.01"/>
        </g>
      </g>
      <g>
        <g>
          <rect class="cls-5" x="20.39" y="65.27" width=".84" height="57.39"/>
          <rect class="cls-5" x="41.27" y="65.27" width=".84" height="57.39"/>
        </g>
        <rect class="cls-5" x="17.49" y="114.23" width="27.52" height="1.09"/>
        <rect class="cls-5" x="17.49" y="98.69" width="27.52" height="1.09"/>
        <rect class="cls-5" x="17.49" y="83.16" width="27.52" height="1.09"/>
        <rect class="cls-5" x="17.49" y="67.63" width="27.52" height="1.09"/>
        <g>
          <polygon class="cls-5" points="41.14 99.55 21.11 113.99 21.36 114.47 41.39 100.03 41.14 99.55"/>
          <polygon class="cls-5" points="21.36 99.55 21.11 100.03 41.14 114.47 41.39 113.99 21.36 99.55"/>
        </g>
        <g>
          <polygon class="cls-5" points="41.14 84.01 21.11 98.45 21.36 98.94 41.39 84.5 41.14 84.01"/>
          <polygon class="cls-5" points="21.36 84.01 21.11 84.5 41.14 98.94 41.39 98.45 21.36 84.01"/>
        </g>
        <g>
          <polygon class="cls-5" points="41.14 68.48 21.11 82.92 21.36 83.4 41.39 68.97 41.14 68.48"/>
          <polygon class="cls-5" points="21.36 68.48 21.11 68.97 41.14 83.4 41.39 82.92 21.36 68.48"/>
        </g>
      </g>
      <g>
        <g>
          <rect class="cls-5" x="45.82" y="80.8" width=".84" height="57.39"/>
          <rect class="cls-5" x="66.69" y="80.8" width=".84" height="57.39"/>
        </g>
        <rect class="cls-5" x="42.92" y="129.76" width="27.52" height="1.09"/>
        <rect class="cls-5" x="42.92" y="114.23" width="27.52" height="1.09"/>
        <rect class="cls-5" x="42.92" y="98.69" width="27.52" height="1.09"/>
        <rect class="cls-5" x="42.92" y="83.16" width="27.52" height="1.09"/>
        <g>
          <polygon class="cls-5" points="66.57 115.08 46.53 129.52 46.79 130 66.82 115.56 66.57 115.08"/>
          <polygon class="cls-5" points="46.79 115.08 46.53 115.56 66.57 130 66.82 129.52 46.79 115.08"/>
        </g>
        <g>
          <polygon class="cls-5" points="66.57 99.55 46.53 113.98 46.79 114.47 66.82 100.03 66.57 99.55"/>
          <polygon class="cls-5" points="46.79 99.55 46.53 100.03 66.57 114.47 66.82 113.98 46.79 99.55"/>
        </g>
        <g>
          <polygon class="cls-5" points="66.57 84.01 46.53 98.45 46.79 98.94 66.82 84.5 66.57 84.01"/>
          <polygon class="cls-5" points="46.79 84.01 46.53 84.5 66.57 98.94 66.82 98.45 46.79 84.01"/>
        </g>
      </g>
    </g>
    <g>
      <g>
        <path class="cls-12" d="M24.68,145.68c-.15-.31-.46-.52-.83-.52h-.43l-.33-1-.73-2.23-.5-1.52-.73-2.23-.5-1.52-.73-2.23-.08-.24c-.37-1.12-1.95-1.12-2.32,0l-.08.24-.73,2.23-.5,1.52-.73,2.23-.5,1.52-.73,2.23-.33,1h-.44c-.36,0-.68.21-.83.52-.06.12-.09.26-.09.41v.91c0,.51.41.92.92.92h10.4c.51,0,.92-.41.92-.92v-.91c0-.15-.03-.28-.09-.41Z"/>
        <g>
          <polygon class="cls-14" points="19.89 134.43 17.41 134.43 16.68 136.66 20.62 136.66 19.89 134.43"/>
          <polygon class="cls-14" points="21.12 138.18 16.18 138.18 15.45 140.41 21.85 140.41 21.12 138.18"/>
          <polygon class="cls-14" points="22.35 141.93 14.95 141.93 14.21 144.16 23.09 144.16 22.35 141.93"/>
        </g>
      </g>
      <g>
        <path class="cls-12" d="M47.29,145.68c-.15-.31-.46-.52-.83-.52h-.44l-.33-1-.73-2.23-.5-1.52-.73-2.23-.5-1.52-.73-2.23-.08-.24c-.37-1.12-1.95-1.12-2.32,0l-.08.24-.73,2.23-.5,1.52-.73,2.23-.5,1.52-.73,2.23-.33,1h-.43c-.36,0-.68.21-.83.52-.06.12-.09.26-.09.41v.91c0,.51.41.92.92.92h10.4c.51,0,.92-.41.92-.92v-.91c0-.15-.03-.28-.09-.41Z"/>
        <g>
          <polygon class="cls-14" points="42.5 134.43 40.03 134.43 39.29 136.66 43.24 136.66 42.5 134.43"/>
          <polygon class="cls-14" points="43.74 138.18 38.79 138.18 38.06 140.41 44.47 140.41 43.74 138.18"/>
          <polygon class="cls-14" points="44.97 141.93 37.56 141.93 36.83 144.16 45.7 144.16 44.97 141.93"/>
        </g>
      </g>
      <g>
        <path class="cls-12" d="M69.91,145.68c-.15-.31-.46-.52-.83-.52h-.43l-.33-1-.73-2.23-.5-1.52-.73-2.23-.5-1.52-.73-2.23-.08-.24c-.37-1.12-1.95-1.12-2.32,0l-.08.24-.73,2.23-.5,1.52-.73,2.23-.5,1.52-.73,2.23-.33,1h-.43c-.36,0-.68.21-.83.52-.06.12-.09.26-.09.41v.91c0,.51.41.92.92.92h10.4c.51,0,.92-.41.92-.92v-.91c0-.15-.03-.28-.09-.41Z"/>
        <g>
          <polygon class="cls-14" points="65.12 134.43 62.64 134.43 61.91 136.66 65.85 136.66 65.12 134.43"/>
          <polygon class="cls-14" points="66.35 138.18 61.41 138.18 60.68 140.41 67.08 140.41 66.35 138.18"/>
          <polygon class="cls-14" points="67.58 141.93 60.18 141.93 59.44 144.16 68.32 144.16 67.58 141.93"/>
        </g>
      </g>
    </g>
  </g>
</svg>